<?xml version="1.0" encoding="UTF-8" standalone="no"?>
<!DOCTYPE svg PUBLIC "-//W3C//DTD SVG 1.1//EN" "http://www.w3.org/Graphics/SVG/1.1/DTD/svg11.dtd">
<!-- Created with Vectornator (http://vectornator.io/) -->
<svg height="100%" stroke-miterlimit="10" style="fill-rule:nonzero;clip-rule:evenodd;stroke-linecap:round;stroke-linejoin:round;" version="1.1" viewBox="0 0 1024 1024" width="100%" xml:space="preserve" xmlns="http://www.w3.org/2000/svg" xmlns:xlink="http://www.w3.org/1999/xlink">
<defs>
<linearGradient gradientTransform="matrix(1.31643 0 0 1.31643 -153.813 -151.803)" gradientUnits="userSpaceOnUse" id="LinearGradient" x1="258.242" x2="473.477" y1="660.756" y2="660.756">
<stop offset="0" stop-color="#ca17dc" stop-opacity="0.742817"/>
<stop offset="1" stop-color="#cdd1e5"/>
</linearGradient>
<linearGradient gradientTransform="matrix(1.31643 0 0 1.31643 -153.813 -151.803)" gradientUnits="userSpaceOnUse" id="LinearGradient_2" x1="486.312" x2="738.574" y1="364.567" y2="364.567">
<stop offset="0" stop-color="#cb13dd"/>
<stop offset="1" stop-color="#874dc7"/>
</linearGradient>
</defs>
<g id="Ebene-2">
<path d="M781.867 645.924C781.867 645.924 782.899 635.317 782.922 624.294C782.944 613.271 781.956 601.832 781.956 601.832C781.956 601.832 725.26 714.965 596.484 770.253C479.551 820.456 376.853 818.637 376.853 818.637L406.559 832.86C406.559 832.86 533.444 836.903 629.168 794.689C753.851 739.704 781.867 645.924 781.867 645.924Z" fill="#cdd1e5" fill-rule="nonzero" opacity="1" stroke="none"/>
<path d="M568.775 663.685C568.775 663.685 571.884 651.366 573.685 641.121C575.486 630.876 575.979 622.705 575.979 622.705C575.979 622.705 568.61 627.432 559.61 630.838C550.609 634.244 542.679 636.158 542.679 636.158L552.394 601.832C552.394 601.832 556.804 594.38 559.847 586.479C562.89 578.579 564.783 568.711 564.783 568.711C564.783 568.711 523.492 612.165 431.285 596.381C338.707 580.532 303.848 557.645 303.848 557.645L477.3 533.641C477.3 533.641 484.594 530.258 489.958 525.591C495.323 520.924 498.758 514.973 498.758 514.973C498.758 514.973 464.265 523.822 407.954 499.152C339.395 469.116 270.392 404.803 270.392 404.803L360.456 525.322L252.088 551.185L380.387 636.325L515.655 648.096L446.789 715.403L492.172 719.285L546.277 705.736L568.775 663.685Z" fill="#cdd1e5" fill-rule="nonzero" opacity="1" stroke="none"/>
<path d="M186.308 612.408C186.308 612.408 210.559 632.183 241.733 649.54C267.831 664.07 290.636 670.642 290.636 670.642C290.636 670.642 307.928 711.075 359.631 739.646C409.848 767.395 469.488 752.913 469.488 752.913C469.488 752.913 408.129 786.126 356.895 803.814C305.661 821.503 264.553 823.666 264.553 823.666C264.553 823.666 229.035 788.544 206.977 729.264C182.922 664.62 186.308 612.408 186.308 612.408Z" fill="url(#LinearGradient)" fill-rule="nonzero" opacity="1" stroke="none"/>
<path d="M515.894 375.931C515.894 375.931 468.116 291.94 494.147 231.439C532.859 141.465 597.892 125.565 597.892 125.565C597.892 125.565 558.098 186.752 575.979 268.895C593.859 351.038 669.414 454.136 669.414 454.136C669.414 454.136 552.494 282.868 611.858 178.175C685.818 47.7415 818.47 89.3296 818.47 89.3296C818.47 89.3296 680.395 127.574 679.796 313.428C679.632 364.489 739.829 496.922 739.829 496.922L647.339 573.226C647.339 573.226 628.438 503.164 595.577 453.84C562.716 404.517 515.894 375.931 515.894 375.931Z" fill="url(#LinearGradient_2)" fill-rule="nonzero" opacity="1" stroke="none"/>
<path d="M433.962 957.426C433.962 957.426 471.029 927.659 488.725 897.129C488.725 897.129 751.689 927.659 808.651 660.456C829.346 563.374 896.523 550.758 896.523 550.758C832.571 381.827 648.18 594.133 639.469 647.547C639.469 647.547 670.609 507.487 432.462 377.373C259.053 282.629 290.359 178.175 290.359 178.175C290.359 178.175 343.595 278.134 461.502 340.08C641.545 434.67 651.355 567.792 651.355 567.792C651.355 567.792 730.04 488.245 762.282 468.84L664.826 315.959C798.168 399.929 830.889 469.095 830.889 469.095C896.31 471.022 911.007 540.975 911.007 540.975C911.007 540.975 933.404 559.097 935.56 569.706C935.56 569.706 905.18 559.266 870.034 585.711C870.034 585.711 889.972 701.623 827.994 808.33C770.124 907.964 637.805 1000.52 433.962 957.426Z" fill="#000000" fill-rule="nonzero" opacity="1" stroke="none"/>
<path d="M827.994 530.156C827.994 522.727 834.571 516.704 842.685 516.704C850.798 516.704 857.376 522.727 857.376 530.156C857.376 537.586 850.798 543.608 842.685 543.608C834.571 543.608 827.994 537.586 827.994 530.156Z" fill="#000000" fill-rule="nonzero" opacity="1" stroke="none"/>
<path d="M781.867 645.924C736.991 897.129 470.923 868.166 470.923 868.166C381.977 998.956 277.313 978.163 274.913 948.638C273.618 932.708 324.147 933.115 372.396 892.303C372.396 892.303 164.699 975.832 152.136 879.25C147.112 840.629 304.473 832.961 415.351 832.091C724.956 829.659 781.867 645.924 781.867 645.924Z" fill="#000000" fill-rule="nonzero" opacity="1" stroke="none"/>
<path d="M356.87 803.814C395.511 794.362 545.291 783.264 568.775 663.586C568.775 663.586 537.993 714.563 478.876 712.323C478.876 712.323 537.253 688.564 552.506 601.744C552.506 601.744 504.737 687.441 304.724 558.044C304.724 558.044 402.138 594.659 477.347 533.717C477.347 533.717 355.281 496.003 277.729 408.291C277.729 408.291 381.305 466.1 456.328 445.86C456.328 445.86 328.893 428.672 237.413 300.161C155.961 185.739 191.887 53.3067 191.887 53.3067C139.634 48.9151-81.1271 389.008 346.668 519.263C346.668 519.263 284.542 524.57 216.303 499.398C133.841 468.979 108.027 435.824 108.027 435.824C108.027 435.824 142.605 669.044 466.943 662.915C466.943 662.915 436.368 678.157 402.445 682.958C368.523 687.759 332.379 681.969 332.379 681.969C332.379 681.969 356.694 713.323 410.993 725.798C455.082 735.927 507.898 725.973 507.898 725.973C447.098 772.949 356.87 803.814 356.87 803.814Z" fill="#000000" fill-rule="nonzero" opacity="1" stroke="none"/>
<path d="M410.184 308.643C410.184 308.643 414.206 306.456 426.328 298.577C438.449 290.698 455.481 282.868 455.481 282.868C455.481 282.868 454.137 296.987 456.976 313.032C459.815 329.078 466.943 343.987 466.943 343.987C466.943 343.987 450.101 335.086 435.911 326.25C421.721 317.414 410.184 308.643 410.184 308.643Z" fill="#000002" fill-rule="nonzero" opacity="1" stroke="none"/>
</g>
</svg>
