<?xml version="1.0" encoding="UTF-8" standalone="no"?>
<!DOCTYPE svg PUBLIC "-//W3C//DTD SVG 1.1//EN" "http://www.w3.org/Graphics/SVG/1.1/DTD/svg11.dtd">
<!-- Created with Vectornator (http://vectornator.io/) -->
<svg height="100%" stroke-miterlimit="10" style="fill-rule:nonzero;clip-rule:evenodd;stroke-linecap:round;stroke-linejoin:round;" version="1.1" viewBox="0 0 1024 1024" width="100%" xml:space="preserve" xmlns="http://www.w3.org/2000/svg" xmlns:vectornator="http://vectornator.io" xmlns:xlink="http://www.w3.org/1999/xlink">
<defs/>
<g id="Ebene-2" vectornator:layerName="Ebene 2">
<path d="M198.831 1018.55C198.831 1018.55 249.726 932.69 337.529 911.588C426.258 890.264 512 886.892 533.486 883.723C556.188 880.374 654.84 863.164 723.324 782.773C789.59 704.985 834.255 602.678 839.601 595.945C844.755 589.454 856.014 576.791 875.541 563.821C895.069 550.851 919.823 543.627 919.823 543.627C908.03 528.635 886.353 525.041 886.353 525.041C886.353 525.041 883.184 473.462 824.661 479.051C785.546 482.787 749.356 533.481 749.356 533.481C749.356 533.481 756.582 505.262 694.488 427.766C650.363 372.696 538.967 275.939 512 221.211C441.242 77.6127 497.52 2.72413 497.52 2.72413C497.52 2.72413 453.869 22.1279 431.064 61.9813C408.258 101.835 406.297 162.138 406.297 162.138C406.297 162.138 395.627 147.601 382.702 137.555C369.778 127.509 354.6 121.954 354.6 121.954C354.6 121.954 344.22 152.083 345.464 184.683C346.708 217.283 359.577 252.355 359.577 252.355C359.577 252.355 347.251 243.429 331.363 239.644C315.475 235.86 296.024 237.218 296.024 237.218C296.024 237.218 300.065 263.338 308.604 287.518C317.143 311.698 330.179 333.937 330.179 333.937C330.179 333.937 259.632 308.42 219.203 261.577C178.775 214.735 168.466 146.567 168.466 146.567C168.466 146.567 145.056 183.511 147.716 229.126C150.377 274.742 179.106 329.031 179.106 329.031C179.106 329.031 164.043 325.357 147.905 324.882C131.766 324.406 114.554 327.13 114.554 327.13C114.554 327.13 125.043 359.079 143.925 384.876C162.807 410.673 190.082 430.317 190.082 430.317C190.082 430.317 174.023 433.391 159.368 439.711C144.714 446.03 131.466 455.597 131.466 455.597C131.466 455.597 151.79 478.075 172.073 493.425C192.357 508.775 212.601 516.996 212.601 516.996C212.601 516.996 198.101 525.229 184.005 541.394C169.909 557.558 156.218 581.653 156.218 581.653C156.218 581.653 181.648 584.975 209.934 585.961C238.219 586.948 269.358 585.601 269.358 585.601C269.358 585.601 255.634 598.95 241.344 622.671C227.053 646.391 212.196 680.481 212.196 680.481C212.196 680.481 239.146 678.069 269.235 667.827C299.324 657.586 332.552 639.514 332.552 639.514C332.552 639.514 323.178 665.222 320.074 696.84C316.97 728.457 320.136 765.984 320.136 765.984C320.136 765.984 344.447 740.404 362.037 714.883C379.626 689.361 390.496 663.899 390.496 663.899C390.496 663.899 390.393 691.16 393.779 711.742C397.164 732.324 404.037 746.227 404.037 746.227C404.037 746.227 330.219 777.998 278.918 846.079C227.616 914.16 198.831 1018.55 198.831 1018.55Z" fill="#6b89ad" fill-rule="nonzero" opacity="1" stroke="none" vectornator:layerName="Kurve 1"/>
<path d="M812.809 527.262C812.809 520.278 818.471 514.616 825.455 514.616C832.439 514.616 838.1 520.278 838.1 527.262C838.1 534.246 832.439 539.908 825.455 539.908C818.471 539.908 812.809 534.246 812.809 527.262Z" fill="#ffffff" fill-rule="nonzero" opacity="1" stroke="none" vectornator:layerName="Oval 1"/>
<path d="M673.012 583.977C701.299 573.827 650.8 497.873 638.552 483.772C622.752 465.582 590.34 435.453 527.869 422.003C442.214 403.562 383.487 397.908 310.493 369.135C291.349 361.589 259.564 346.066 230.332 316.777C201.099 287.489 176.869 243.164 176.869 243.164C176.869 243.164 203.14 304.434 232.235 337.132C259.208 367.443 302.631 393.821 353.576 406.129C425.831 423.585 533.595 455.685 559.896 464.631C586.198 473.578 613.678 500.083 630.828 527.262C648.013 554.498 644.724 594.126 673.012 583.977Z" fill="#ffffff" fill-rule="nonzero" opacity="1" stroke="none" vectornator:layerName="Kurve 2"/>
</g>
</svg>
